<?xml version="1.0" encoding="UTF-8"?>
<svg width="370px" height="102px" viewBox="0 0 370 102" version="1.1" xmlns="http://www.w3.org/2000/svg" xmlns:xlink="http://www.w3.org/1999/xlink">
    <!-- Generator: Sketch 55 (78076) - https://sketchapp.com -->
    <title>Group 2</title>
    <desc>Created with Sketch.</desc>
    <g id="Page-1" stroke="none" stroke-width="1" fill="none" fill-rule="evenodd">
        <g id="Logo" transform="translate(-38.000000, -28.000000)">
            <g id="Group-2" transform="translate(38.000000, 28.000000)">
                <text id="/?url=user_agent=mos" font-family="OperatorMonoLig-Book, Operator Mono Lig" font-size="8" font-weight="300">
                    <tspan x="15" y="100" fill="#303030" fill-opacity="0.5">/?url=user_agent=mosaic&amp;is_enabled </tspan>
                    <tspan x="169" y="100" font-family="Monaco" font-weight="normal" fill="#303030" fill-opacity="0.5">→</tspan>
                    <tspan x="173.800781" y="100" fill="#303030" fill-opacity="0.5"> </tspan>
                    <tspan x="178.200781" y="100" fill="#000000" fill-opacity="0.6">{ userAgent: </tspan>
                    <tspan x="235.400781" y="100" fill="#FF922B">'mosaic'</tspan>
                    <tspan x="270.600781" y="100" fill="#000000" fill-opacity="0.6">, isEnabled: </tspan>
                    <tspan x="327.800781" y="100" fill="#FF6B6B">true</tspan>
                    <tspan x="345.400781" y="100" fill="#000000" fill-opacity="0.6"> }</tspan>
                    <tspan x="354.200781" y="100" fill="#303030" fill-opacity="0.5"></tspan>
                </text>
                <g id="to-query_logo">
                    <g id="Group" fill="#303030" fill-rule="nonzero">
                        <polygon id="Path" points="13.8 0.6 13.8 19.2 26.5 19.2 26.5 23.2 13.8 23.2 13.8 59.7 8.8 59.7 8.8 23.2 0.1 23.2 0.1 19.2 8.8 19.2 8.8 0.6"></polygon>
                        <path d="M35.7,28 C37.6,24.7 40.3,22.1 43.6,20.1 C47,18.2 50.7,17.2 54.7,17.2 C58.8,17.2 62.5,18.2 65.8,20.1 C69.2,22 71.8,24.6 73.7,28 C75.6,31.3 76.5,34.9 76.5,38.9 C76.5,42.9 75.5,46.5 73.6,49.8 C71.7,53.1 69.1,55.7 65.7,57.6 C62.4,59.5 58.7,60.5 54.5,60.5 C50.4,60.5 46.6,59.6 43.3,57.7 C40,55.8 37.4,53.3 35.5,50 C33.6,46.7 32.7,43 32.7,38.9 C32.8,35 33.8,31.4 35.7,28 L35.7,28 Z M40,47.7 C41.5,50.4 43.5,52.5 46.1,54 C48.7,55.5 51.5,56.3 54.6,56.3 C57.7,56.3 60.5,55.5 63.1,54 C65.7,52.5 67.7,50.4 69.2,47.7 C70.7,45 71.5,42.1 71.5,39 C71.5,35.9 70.7,32.9 69.2,30.2 C67.7,27.5 65.6,25.4 63.1,23.9 C60.5,22.4 57.7,21.6 54.6,21.6 C51.5,21.6 48.6,22.4 46,24.1 C43.4,25.7 41.4,27.9 39.9,30.6 C38.4,33.3 37.7,36.1 37.7,39.1 C37.8,42.2 38.5,45.1 40,47.7 L40,47.7 Z" id="Shape"></path>
                        <path d="M183.5,18.3 L183.5,79.4 L178.6,79.4 L178.6,51 C176.9,53.9 174.3,56.2 170.9,57.9 C167.5,59.6 163.9,60.5 159.9,60.5 C156.1,60.5 152.7,59.6 149.5,57.7 C146.4,55.8 143.8,53.3 142,50 C140.1,46.7 139.2,43.1 139.2,39 C139.2,34.9 140.2,31.2 142.1,27.9 C144,24.6 146.7,22 150,20.1 C153.4,18.2 157.1,17.3 161.1,17.3 C164.5,17.3 167.8,18.2 171,19.9 C174.1,21.6 176.6,23.9 178.5,26.8 L178.5,18.3 L183.5,18.3 Z M178.4,37.5 C178.2,34.6 177.3,31.9 175.8,29.5 C174.3,27.1 172.2,25.2 169.7,23.8 C167.1,22.4 164.3,21.7 161.3,21.7 C158.2,21.7 155.4,22.5 152.7,24 C150.1,25.5 148,27.6 146.5,30.3 C145,33 144.2,35.9 144.2,39.1 C144.2,42.2 145,45.2 146.5,47.8 C148,50.5 150.1,52.6 152.7,54.1 C155.3,55.6 158.2,56.4 161.3,56.4 C164.3,56.4 167.1,55.7 169.6,54.4 C172.1,53 174.2,51.2 175.8,48.9 C177.4,46.6 178.3,44 178.5,41.1 L178.5,37.5 L178.4,37.5 Z" id="Shape"></path>
                        <path d="M234.9,18.6 L234.9,59.6 L230.5,59.6 L230.2,50.9 C228.9,53.8 226.6,56.1 223.4,58 C220.2,59.9 216.8,60.8 213.1,60.8 C209.3,60.8 206.3,59.7 203.9,57.4 C201.5,55.1 200.3,52.2 200.2,48.5 L200.2,18.6 L205.1,18.6 L205.1,47 C205.2,49.8 206.1,52 207.7,53.7 C209.3,55.4 211.7,56.3 214.7,56.4 C217.4,56.4 219.9,55.7 222.2,54.3 C224.5,52.9 226.4,51 227.8,48.5 C229.2,46.1 229.9,43.3 229.9,40.3 L229.9,18.6 L234.9,18.6 Z" id="Path"></path>
                        <path d="M266.782609,56.5185185 C270.333333,56.5185185 273.478261,55.6018519 276.318841,53.7685185 C279.15942,51.9351852 281.188406,49.4907407 282.507246,46.537037 L247,32.787037 C248.521739,27.8981481 251.057971,24.1296296 254.405797,21.2777778 C257.855072,18.4259259 261.913043,17 266.782609,17 C270.84058,17 274.594203,18.0185185 277.942029,19.9537037 C281.391304,21.9907407 284.028986,24.6388889 286.057971,28 C288.086957,31.3611111 289,35.0277778 289,39.1018519 C289,43.2777778 288.086957,46.9444444 286.15942,50.3055556 C284.231884,53.6666667 281.695652,56.212963 278.246377,58.1481481 C274.898551,60.0833333 271.043478,61 266.782609,61 C264.144928,61 261.507246,60.4907407 258.971014,59.5740741 C256.333333,58.6574074 254.101449,57.3333333 251.971014,55.7037037 L254.507246,52.037037 C258.26087,54.9907407 262.318841,56.5185185 266.782609,56.5185185 L266.782609,56.5185185 Z M267.081699,21 C263.941176,21 261.104575,21.9295775 258.673203,23.685446 C256.24183,25.4413146 254.418301,27.8169014 253,30.7089202 L283.594771,43 C283.898693,41.8638498 284,40.5211268 284,38.971831 C284,35.6666667 283.29085,32.6713615 281.771242,29.8826291 C280.251634,27.1971831 278.22549,25.028169 275.591503,23.4788732 C273.058824,21.8262911 270.222222,21 267.081699,21 L267.081699,21 Z" id="Shape" transform="translate(268.000000, 39.000000) scale(-1, 1) translate(-268.000000, -39.000000) "></path>
                        <path d="M312.6,20.5 C316,18.5 319.3,17.5 322.7,17.5 L322.5,22.3 C319.4,22.3 316.6,23 314,24.3 C311.4,25.7 309.4,27.6 307.9,30 C306.4,32.4 305.6,35.1 305.6,37.9 L305.6,59.6 L300.7,59.6 L300.7,18.6 L305,18.6 L305.4,28.4 C306.8,25.1 309.3,22.5 312.6,20.5 Z" id="Path"></path>
                        <polygon id="Path" points="369.9 18.6 343.5 79.4 338.4 79.4 347.2 59.3 328.2 18.7 333.8 18.7 349.8 53.6 365.2 18.7 369.9 18.7"></polygon>
                    </g>
                    <path d="M92.2,38.5 L93.2,38.5" id="Path" stroke="#707070"></path>
                    <path d="M95.1,38.5 L121.3,38.5" id="Path" stroke="#707070" stroke-dasharray="1.9389"></path>
                    <path d="M122.3,38.5 L123.3,38.5" id="Path" stroke="#707070"></path>
                    <polygon id="Path" fill="#CC5DE8" fill-rule="nonzero" transform="translate(124.800000, 38.550000) scale(1, -1) translate(-124.800000, -38.550000) " points="120.8 34.55 128.8 34.55 128.8 42.55 120.8 42.55"></polygon>
                    <polygon id="Path" fill="#20C997" fill-rule="nonzero" transform="translate(90.800000, 38.550000) scale(1, -1) translate(-90.800000, -38.550000) " points="86.8 34.55 94.8 34.55 94.8 42.55 86.8 42.55"></polygon>
                </g>
            </g>
        </g>
    </g>
</svg>